HIERARCHY
ROOT ui
{
	 OFFSET 0 0 0
	 CHANNELS 3 XPosition YPosition Z Position
	 EndSite
	 {
	 OFFSET 0 -1 0
	 }
}
ROOT li
{
	 OFFSET 0 0 0
	 CHANNELS 3 XPosition YPosition Z Position
	 EndSite
	 {
	 OFFSET 0 -1 0
	 }
}
ROOT ul
{
	 OFFSET 0 0 0
	 CHANNELS 3 XPosition YPosition Z Position
	 EndSite
	 {
	 OFFSET 0 -1 0
	 }
}
ROOT ll
{
	 OFFSET 0 0 0
	 CHANNELS 3 XPosition YPosition Z Position
	 EndSite
	 {
	 OFFSET 0 -1 0
	 }
}
ROOT tt
{
	 OFFSET 0 0 0
	 CHANNELS 3 XPosition YPosition Z Position
	 EndSite
	 {
	 OFFSET 0 -1 0
	 }
}
ROOT tb
{
	 OFFSET 0 0 0
	 CHANNELS 3 XPosition YPosition Z Position
	 EndSite
	 {
	 OFFSET 0 -1 0
	 }
}
ROOT td
{
	 OFFSET 0 0 0
	 CHANNELS 3 XPosition YPosition Z Position
	 EndSite
	 {
	 OFFSET 0 -1 0
	 }
}
ROOT v
{
	 OFFSET 0 0 0
	 CHANNELS 3 XPosition YPosition Z Position
	 EndSite
	 {
	 OFFSET 0 -1 0
	 }
}
ROOT bn
{
	 OFFSET 0 0 0
	 CHANNELS 3 XPosition YPosition Z Position
	 EndSite
	 {
	 OFFSET 0 -1 0
	 }
}
MOTION
Frames: 10
Frame Time: 0.002
-0.00972605037689209	3.1259799003601076E-4	0		0.6364752807617188	-2.56306689453125	0		-0.9667803344726562	0.10258745574951172	0		-0.34516128540039065	-2.4175517578125	0		1.6714527587890624	-1.125024169921875	0		3.370005615234375	-0.7664595336914063	0		4.73839697265625	-0.31969287109375	0		6.0705712890625	0.5101127319335937	0		-0.25546739196777346	5.91297021484375	0		
-0.012845365524291993	-0.0025931708812713624	0		0.6082402954101562	-2.562765869140625	0		-1.038822265625	0.10740815734863281	0		-0.37146600341796876	-2.425214111328125	0		1.6474359130859375	-1.1108218994140624	0		3.35769677734375	-0.7844695434570312	0		4.72609423828125	-0.33978073120117186	0		6.07050927734375	0.5096194763183594	0		-0.25522068786621094	5.91304931640625	0		
0.016084714889526366	1.825149953365326E-4	0		0.6360017700195313	-2.56301416015625	0		-0.9578789672851562	0.11073014068603515	0		-0.40079229736328126	-2.43485009765625	0		1.6003681640625	-1.1013922119140624	0		3.349586181640625	-0.7815147094726562	0		4.708900390625	-0.3478116149902344	0		6.07826611328125	0.5037686767578125	0		-0.23988975524902345	5.923974609375	0		
-0.010014285087585449	4.905669987201691E-4	0		0.6039290771484375	-2.546679443359375	0		-1.0339698486328126	0.11158061981201171	0		-0.3660389404296875	-2.437121337890625	0		1.581537353515625	-1.068236083984375	0		3.30531005859375	-0.7951997680664062	0		4.68779345703125	-0.346793701171875	0		6.067568359375	0.520869384765625	0		-0.22457838439941405	5.9348916015625	0		
0.015886570930480955	2.7880600094795226E-4	0		0.6645480346679687	-2.563266357421875	0		-0.9580661010742187	0.11092301177978516	0		-0.3723223876953125	-2.4439990234375	0		1.521618896484375	-1.0446739501953124	0		3.302124755859375	-0.8002828979492187	0		4.68548095703125	-0.3669521484375	0		6.0744921875	0.485670654296875	0		-0.23950047302246094	5.92409619140625	0		
-0.013233110427856446	-0.002397425889968872	0		0.6014860229492187	-2.548634033203125	0		-0.9581525268554687	0.11100129699707031	0		-0.358581787109375	-2.45008544921875	0		1.5155413818359376	-1.0386456298828124	0		3.269979736328125	-0.80207421875	0		4.6652353515625	-0.38092315673828125	0		6.07442822265625	0.485264892578125	0		-0.23933059692382813	5.92414306640625	0		
0.012674529075622559	-0.003630479097366333	0		0.6522202758789063	-2.557140869140625	0		-0.9641888427734375	0.11512533569335938	0		-0.3678505859375	-2.458954833984375	0		1.4607109375	-1.0091331787109374	0		3.24385791015625	-0.802920166015625	0		4.66208935546875	-0.38605450439453126	0		6.063609375	0.46957284545898437	0		-0.23917359924316406	5.92417822265625	0		
-0.013381405830383301	-0.0023555319309234617	0		0.6199620361328125	-2.566828369140625	0		-1.03024853515625	0.11583634948730469	0		-0.35323779296875	-2.48207568359375	0		1.4627674560546875	-0.9931918334960937	0		3.22274267578125	-0.80481201171875	0		4.63984912109375	-0.4019869689941406	0		6.06426123046875	0.4657385559082031	0		-0.23902642822265624	5.9242021484375	0		
0.022667348861694334	0.0072866249084472656	0		0.642959228515625	-2.554076171875	0		-0.9401885986328125	0.1259684829711914	0		-0.3721755065917969	-2.462870361328125	0		1.46195703125	-0.9662261352539062	0		3.24375634765625	-0.7961231079101563	0		4.64875537109375	-0.4052223510742187	0		6.067857421875	0.4808873291015625	0		-0.23888589477539063	5.9242138671875	0		
-0.010431039810180663	6.117420196533203E-4	0		0.6319287109375	-2.54699072265625	0		-0.9452548828125	0.12203837585449219	0		-0.3603557739257813	-2.470987548828125	0		1.450021728515625	-0.9541541137695313	0		3.18771728515625	-0.7946572265625	0		4.62874560546875	-0.40215890502929685	0		6.0642060546875	0.4650946350097656	0		-0.20470028686523437	5.92887060546875	0		
